<mxfile host="app.diagrams.net" modified="2021-12-22T14:11:44.719Z" agent="5.0 (Windows NT 10.0; Win64; x64) AppleWebKit/537.36 (KHTML, like Gecko) Chrome/96.0.4664.110 Safari/537.36" etag="2yVAd3l8aTk5Vp4FYTmm" version="16.0.3" type="github">
  <diagram id="8cFxdki_IGBZTcbh_hcU" name="第 1 页">
    <mxGraphModel dx="1488" dy="907" grid="1" gridSize="10" guides="1" tooltips="1" connect="1" arrows="1" fold="1" page="1" pageScale="1" pageWidth="827" pageHeight="1169" math="0" shadow="0">
      <root>
        <mxCell id="0" />
        <mxCell id="1" parent="0" />
        <mxCell id="_ySzMrgHGohoPpWGrHTG-3" value="" style="rounded=0;whiteSpace=wrap;html=1;" parent="1" vertex="1">
          <mxGeometry x="24" y="170" width="776" height="710" as="geometry" />
        </mxCell>
        <mxCell id="_ySzMrgHGohoPpWGrHTG-21" value="" style="rounded=0;whiteSpace=wrap;html=1;" parent="1" vertex="1">
          <mxGeometry x="90" y="260" width="650" height="200" as="geometry" />
        </mxCell>
        <mxCell id="_ySzMrgHGohoPpWGrHTG-17" value="" style="rounded=0;whiteSpace=wrap;html=1;" parent="1" vertex="1">
          <mxGeometry x="90" y="550" width="650" height="210" as="geometry" />
        </mxCell>
        <mxCell id="_ySzMrgHGohoPpWGrHTG-15" style="edgeStyle=orthogonalEdgeStyle;rounded=0;orthogonalLoop=1;jettySize=auto;html=1;exitX=0.5;exitY=1;exitDx=0;exitDy=0;entryX=0.5;entryY=0;entryDx=0;entryDy=0;" parent="1" source="_ySzMrgHGohoPpWGrHTG-1" target="_ySzMrgHGohoPpWGrHTG-6" edge="1">
          <mxGeometry relative="1" as="geometry" />
        </mxCell>
        <mxCell id="_ySzMrgHGohoPpWGrHTG-16" value="调用write函数" style="edgeLabel;html=1;align=center;verticalAlign=middle;resizable=0;points=[];" parent="_ySzMrgHGohoPpWGrHTG-15" vertex="1" connectable="0">
          <mxGeometry x="-0.2504" relative="1" as="geometry">
            <mxPoint as="offset" />
          </mxGeometry>
        </mxCell>
        <mxCell id="_ySzMrgHGohoPpWGrHTG-19" value="&lt;span style=&quot;color: rgba(0 , 0 , 0 , 0) ; font-family: monospace ; font-size: 0px ; background-color: rgb(248 , 249 , 250)&quot;&gt;%3CmxGraphModel%3E%3Croot%3E%3CmxCell%20id%3D%220%22%2F%3E%3CmxCell%20id%3D%221%22%20parent%3D%220%22%2F%3E%3CmxCell%20id%3D%222%22%20value%3D%22%E5%BA%94%E7%94%A8%E7%A8%8B%E5%BA%8FA%22%20style%3D%22text%3Bhtml%3D1%3Balign%3Dcenter%3BverticalAlign%3Dmiddle%3Bresizable%3D0%3Bpoints%3D%5B%5D%3Bautosize%3D1%3BstrokeColor%3Dnone%3BfillColor%3Dnone%3B%22%20vertex%3D%221%22%20parent%3D%221%22%3E%3CmxGeometry%20x%3D%22165%22%20y%3D%22330%22%20width%3D%2270%22%20height%3D%2220%22%20as%3D%22geometry%22%2F%3E%3C%2FmxCell%3E%3C%2Froot%3E%3C%2FmxGraphModel%3E&lt;/span&gt;" style="edgeLabel;html=1;align=center;verticalAlign=middle;resizable=0;points=[];" parent="_ySzMrgHGohoPpWGrHTG-15" vertex="1" connectable="0">
          <mxGeometry x="0.1537" relative="1" as="geometry">
            <mxPoint as="offset" />
          </mxGeometry>
        </mxCell>
        <mxCell id="_ySzMrgHGohoPpWGrHTG-20" value="&lt;div style=&quot;line-height: 1.75 ; text-align: left&quot;&gt;把数据从应用程序中拷贝到操作系统内核的发送缓冲区中&lt;/div&gt;" style="edgeLabel;html=1;align=center;verticalAlign=middle;resizable=0;points=[];" parent="_ySzMrgHGohoPpWGrHTG-15" vertex="1" connectable="0">
          <mxGeometry x="0.1326" y="2" relative="1" as="geometry">
            <mxPoint as="offset" />
          </mxGeometry>
        </mxCell>
        <mxCell id="_ySzMrgHGohoPpWGrHTG-1" value="tcpclient" style="rounded=1;whiteSpace=wrap;html=1;" parent="1" vertex="1">
          <mxGeometry x="140" y="360" width="120" height="60" as="geometry" />
        </mxCell>
        <mxCell id="_ySzMrgHGohoPpWGrHTG-2" value="tcpserver" style="rounded=1;whiteSpace=wrap;html=1;" parent="1" vertex="1">
          <mxGeometry x="550" y="360" width="120" height="60" as="geometry" />
        </mxCell>
        <mxCell id="_ySzMrgHGohoPpWGrHTG-4" value="操作系统" style="text;strokeColor=none;fillColor=none;html=1;fontSize=24;fontStyle=1;verticalAlign=middle;align=center;" parent="1" vertex="1">
          <mxGeometry x="350" y="910" width="100" height="40" as="geometry" />
        </mxCell>
        <mxCell id="_ySzMrgHGohoPpWGrHTG-6" value="发送缓冲区" style="rounded=0;whiteSpace=wrap;html=1;" parent="1" vertex="1">
          <mxGeometry x="140" y="610" width="120" height="60" as="geometry" />
        </mxCell>
        <mxCell id="_ySzMrgHGohoPpWGrHTG-8" value="应用程序A" style="text;html=1;align=center;verticalAlign=middle;resizable=0;points=[];autosize=1;strokeColor=none;fillColor=none;" parent="1" vertex="1">
          <mxGeometry x="165" y="330" width="70" height="20" as="geometry" />
        </mxCell>
        <mxCell id="_ySzMrgHGohoPpWGrHTG-9" value="应用程序B" style="text;html=1;align=center;verticalAlign=middle;resizable=0;points=[];autosize=1;strokeColor=none;fillColor=none;" parent="1" vertex="1">
          <mxGeometry x="575" y="330" width="70" height="20" as="geometry" />
        </mxCell>
        <mxCell id="_ySzMrgHGohoPpWGrHTG-10" value="" style="endArrow=classic;startArrow=classic;html=1;rounded=0;entryX=0;entryY=0.5;entryDx=0;entryDy=0;" parent="1" source="_ySzMrgHGohoPpWGrHTG-1" target="_ySzMrgHGohoPpWGrHTG-2" edge="1">
          <mxGeometry width="50" height="50" relative="1" as="geometry">
            <mxPoint x="390" y="420" as="sourcePoint" />
            <mxPoint x="440" y="370" as="targetPoint" />
          </mxGeometry>
        </mxCell>
        <mxCell id="_ySzMrgHGohoPpWGrHTG-13" value="成功建立TCP连接" style="edgeLabel;html=1;align=center;verticalAlign=middle;resizable=0;points=[];" parent="_ySzMrgHGohoPpWGrHTG-10" vertex="1" connectable="0">
          <mxGeometry x="-0.1062" y="-1" relative="1" as="geometry">
            <mxPoint as="offset" />
          </mxGeometry>
        </mxCell>
        <mxCell id="_ySzMrgHGohoPpWGrHTG-18" value="操作系统内核" style="text;html=1;align=center;verticalAlign=middle;resizable=0;points=[];autosize=1;strokeColor=none;fillColor=none;" parent="1" vertex="1">
          <mxGeometry x="350" y="730" width="90" height="20" as="geometry" />
        </mxCell>
        <mxCell id="_ySzMrgHGohoPpWGrHTG-22" value="用户空间" style="text;html=1;align=center;verticalAlign=middle;resizable=0;points=[];autosize=1;strokeColor=none;fillColor=none;" parent="1" vertex="1">
          <mxGeometry x="360" y="290" width="60" height="20" as="geometry" />
        </mxCell>
        <mxCell id="EhwT9ZefxMWWjJk3bJ4f-1" value="接收缓冲区" style="rounded=0;whiteSpace=wrap;html=1;" vertex="1" parent="1">
          <mxGeometry x="550" y="610" width="120" height="60" as="geometry" />
        </mxCell>
        <mxCell id="EhwT9ZefxMWWjJk3bJ4f-4" value="" style="endArrow=classic;html=1;rounded=0;entryX=0;entryY=0.5;entryDx=0;entryDy=0;exitX=1;exitY=0.5;exitDx=0;exitDy=0;" edge="1" parent="1" source="_ySzMrgHGohoPpWGrHTG-6" target="EhwT9ZefxMWWjJk3bJ4f-1">
          <mxGeometry width="50" height="50" relative="1" as="geometry">
            <mxPoint x="340" y="670" as="sourcePoint" />
            <mxPoint x="390" y="620" as="targetPoint" />
          </mxGeometry>
        </mxCell>
      </root>
    </mxGraphModel>
  </diagram>
</mxfile>
